Coordinates
version=1
nRows=14
nColumns=40
inDegrees=yes

Units are S.I. units (second, meters, Newtons, ...)
If the header above contains a line with 'inDegrees', this indicates whether rotational values are in degrees (yes) or radians (no).

endheader
time	pelvis_tilt	pelvis_list	pelvis_rotation	pelvis_tx	pelvis_ty	pelvis_tz	hip_flexion_r	hip_adduction_r	hip_rotation_r	knee_angle_r	knee_angle_r_beta	ankle_angle_r	subtalar_angle_r	mtp_angle_r	hip_flexion_l	hip_adduction_l	hip_rotation_l	knee_angle_l	knee_angle_l_beta	ankle_angle_l	subtalar_angle_l	mtp_angle_l	lumbar_extension	lumbar_bending	lumbar_rotation	arm_flex_r	arm_add_r	arm_rot_r	elbow_flex_r	pro_sup_r	wrist_flex_r	wrist_dev_r	arm_flex_l	arm_add_l	arm_rot_l	elbow_flex_l	pro_sup_l	wrist_flex_l	wrist_dev_l
     19.27500000	     14.01671161	     -8.03088461	    172.71826696	      0.26721875	      0.93029507	     -0.59084261	     38.79496951	     -8.95489870	      1.82244973	     28.40044201	      0.49568122	      4.09523534	      0.00000000	      0.00000000	     33.37841793	      0.96875386	    -14.66869300	     25.32500169	      0.44200466	      6.43281149	      0.00000000	      0.00000000	    -14.69070912	     -7.69002351	      0.51867789	     21.54341156	    -16.27625501	     50.54506582	     13.78219743	      8.00275967	      0.00000000	      0.00000000	     27.06177122	    -19.94899408	     46.80317434	     20.10239580	     87.44680542	      0.00000000	      0.00000000
     19.28000000	     12.91735360	     -7.91067360	    172.44644742	      0.26570222	      0.93288389	     -0.59139158	     37.20297622	     -8.92258154	      1.77524670	     27.78059622	      0.48486287	      4.10985339	      0.00000000	      0.00000000	     31.73785499	      1.01655907	    -14.85446839	     24.61140051	      0.42954997	      6.35650537	      0.00000000	      0.00000000	    -15.33841282	     -7.73007155	      0.69501701	     21.29031820	    -16.29553013	     49.84365591	     13.98995732	      8.16505231	      0.00000000	      0.00000000	     26.82944214	    -19.98783963	     46.46147278	     20.31368121	     87.43805510	      0.00000000	      0.00000000
     19.28500000	     12.70427318	     -7.87367794	    172.40699967	      0.26495272	      0.93341709	     -0.59153923	     36.90268135	     -8.92534417	      1.72030338	     27.76319442	      0.48455915	      4.15468058	      0.00000000	      0.00000000	     31.41632351	      1.02728806	    -14.81092268	     24.54518308	      0.42839426	      6.44189655	      0.00000000	      0.00000000	    -14.94598000	     -7.70510899	      0.77093366	     20.93507158	    -16.35350408	     49.72621563	     14.10839360	      8.20005774	      0.00000000	      0.00000000	     26.46528539	    -20.11467256	     46.47248520	     20.53682297	     87.46577262	      0.00000000	      0.00000000
     19.29000000	     12.51754356	     -7.85176607	    172.40465073	      0.26441498	      0.93391484	     -0.59167344	     36.67205800	     -8.93184486	      1.78393940	     27.80634706	      0.48531231	      4.12242336	      0.00000000	      0.00000000	     31.20257113	      1.05272506	    -14.72001506	     24.59218303	      0.42921456	      6.39888060	      0.00000000	      0.00000000	    -14.53801002	     -7.69401390	      0.81039547	     20.64738746	    -16.33828289	     49.70807153	     14.09235254	      8.20297501	      0.00000000	      0.00000000	     26.18873200	    -20.15132514	     46.49329028	     20.51359160	     87.47494149	      0.00000000	      0.00000000
     19.29500000	     11.32797870	     -7.69076052	    172.24716550	      0.26278707	      0.93632719	     -0.59205093	     35.07426911	     -8.98383156	      1.53832254	     27.44965177	      0.47908680	      4.24592176	      0.00000000	      0.00000000	     29.55547070	      1.13160067	    -14.74630682	     24.08810906	      0.42041681	      6.42290503	      0.00000000	      0.00000000	    -15.26553354	     -7.67886104	      0.93710341	     20.36392796	    -16.34517770	     48.72877466	     14.23359404	      8.44458789	      0.00000000	      0.00000000	     26.04761402	    -20.28692583	     46.77608041	     20.83671368	     87.44981439	      0.00000000	      0.00000000
     19.30000000	     11.14504371	     -7.67341485	    172.25930895	      0.26227298	      0.93670573	     -0.59197824	     34.85959114	     -9.00808749	      1.60780058	     27.49777747	      0.47992675	      4.21854594	      0.00000000	      0.00000000	     29.35025915	      1.17006934	    -14.67378262	     24.13580195	      0.42124921	      6.38528453	      0.00000000	      0.00000000	    -14.84361603	     -7.64703676	      0.96263489	     20.08052902	    -16.34806482	     48.72317240	     14.20487063	      8.44641586	      0.00000000	      0.00000000	     25.77106184	    -20.30588065	     46.79561161	     20.82207073	     87.45932838	      0.00000000	      0.00000000
     19.30500000	     10.94280701	     -7.65131025	    172.25699398	      0.26165924	      0.93705515	     -0.59212675	     34.62437551	     -9.02538447	      1.66514753	     27.55594374	      0.48094195	      4.21259403	      0.00000000	      0.00000000	     29.11297595	      1.19094109	    -14.58026634	     24.17996359	      0.42201998	      6.36555966	      0.00000000	      0.00000000	    -14.42187487	     -7.62287214	      1.01947864	     19.75345432	    -16.35553335	     48.68973963	     14.20566241	      8.45017936	      0.00000000	      0.00000000	     25.47928814	    -20.32864008	     46.79447321	     20.84610547	     87.46998180	      0.00000000	      0.00000000
     19.31000000	     10.71840851	     -7.62921816	    172.27289461	      0.26102115	      0.93740797	     -0.59222708	     34.36280034	     -9.04565407	      1.68860687	     27.62120082	      0.48208090	      4.24177358	      0.00000000	      0.00000000	     28.84852880	      1.22472130	    -14.52104978	     24.21098558	      0.42256141	      6.37378931	      0.00000000	      0.00000000	    -14.02332484	     -7.59108576	      1.10142435	     19.39325258	    -16.39119172	     48.61300600	     14.25157529	      8.45956320	      0.00000000	      0.00000000	     25.18501609	    -20.36663538	     46.76898648	     20.94210890	     87.48127409	      0.00000000	      0.00000000
     19.31500000	      8.88160572	     -7.50495040	    172.28533901	      0.25876641	      0.94097834	     -0.59216497	     32.03948894	     -9.45617395	      0.91049980	     27.36610756	      0.47762868	      4.59549664	      0.00000000	      0.00000000	     26.29842521	      1.60433062	    -14.49228503	     23.29509141	      0.40657604	      6.36951076	      0.00000000	      0.00000000	    -15.48608182	     -7.60305818	      1.04474044	     19.10755330	    -16.42484844	     46.88997911	     14.55863899	      8.79500478	      0.00000000	      0.00000000	     25.09810692	    -20.52657302	     46.97505519	     21.45831607	     87.47074288	      0.00000000	      0.00000000
     19.32000000	      8.54474433	     -7.42045102	    172.27832344	      0.25807756	      0.94145012	     -0.59232297	     31.66251267	     -9.43208974	      0.90758050	     27.48448984	      0.47969484	      4.72047615	      0.00000000	      0.00000000	     25.89031884	      1.58738536	    -14.39558728	     23.32931440	      0.40717335	      6.49498597	      0.00000000	      0.00000000	    -15.21616123	     -7.51413015	      1.15397653	     18.73150533	    -16.52076897	     46.71964963	     14.73349449	      8.84721307	      0.00000000	      0.00000000	     24.75248772	    -20.60369132	     46.79625364	     21.72178064	     87.47762031	      0.00000000	      0.00000000
     19.32500000	      8.09184826	     -7.37627748	    172.28406301	      0.25727801	      0.94212534	     -0.59239085	     31.14968425	     -9.50107605	      0.79284655	     27.58517729	      0.48145217	      4.84683236	      0.00000000	      0.00000000	     25.34136478	      1.63071267	    -14.40404600	     23.33139557	      0.40720967	      6.60412986	      0.00000000	      0.00000000	    -15.07480654	     -7.46668235	      1.22518561	     18.35771896	    -16.62168502	     46.36622264	     14.94767998	      8.91446340	      0.00000000	      0.00000000	     24.39882532	    -20.69053302	     46.56161577	     22.01013853	     87.48543071	      0.00000000	      0.00000000
     19.33000000	      7.33242063	     -7.31409348	    172.29868537	      0.25623120	      0.94340194	     -0.59250509	     30.26300507	     -9.62833875	      0.57272102	     27.65334839	      0.48264198	      5.01552274	      0.00000000	      0.00000000	     24.37089418	      1.72745641	    -14.41267134	     23.18244495	      0.40460999	      6.64952338	      0.00000000	      0.00000000	    -15.28098400	     -7.44449764	      1.24344021	     18.01531101	    -16.64763169	     45.69105018	     15.13612370	      9.02694832	      0.00000000	      0.00000000	     24.07595164	    -20.69975829	     46.05526039	     22.22172358	     87.49027066	      0.00000000	      0.00000000
     19.33500000	      7.09646470	     -7.30568189	    172.35211432	      0.25588702	      0.94370240	     -0.59245412	     30.00011042	     -9.66635617	      0.67801975	     27.71324981	      0.48368746	      4.97477177	      0.00000000	      0.00000000	     24.13187727	      1.78173805	    -14.30467854	     23.23773745	      0.40557503	      6.60141442	      0.00000000	      0.00000000	    -14.90011993	     -7.41095091	      1.31792992	     17.72899766	    -16.65002869	     45.65857501	     15.06669608	      9.02761790	      0.00000000	      0.00000000	     23.81086693	    -20.68192250	     46.04350759	     22.21830686	     87.50023015	      0.00000000	      0.00000000
     19.34000000	      6.39623761	     -7.28263840	    172.34188393	      0.25491977	      0.94475967	     -0.59254070	     29.21058725	     -9.81655570	      0.47125427	     27.82863173	      0.48570125	      5.24885358	      0.00000000	      0.00000000	     23.23195884	      1.90798792	    -14.29814201	     23.07144918	      0.40267275	      6.73714243	      0.00000000	      0.00000000	    -15.04264184	     -7.41420010	      1.37494101	     17.31907526	    -16.76688426	     44.94229436	     15.45067535	      9.14871646	      0.00000000	      0.00000000	     23.40690314	    -20.77001672	     45.36254859	     22.68213617	     87.50479563	      0.00000000	      0.00000000
